HIERARCHY
ROOT Hips
{
  OFFSET -386.956 93.133 1387.47
  CHANNELS 6 Xposition Yposition Zposition Zrotation Xrotation Yrotation
  JOINT Spine
  {
    OFFSET 0 8 0
    CHANNELS 6 Xposition Yposition Zposition Zrotation Xrotation Yrotation
    JOINT Spine1
    {
      OFFSET 0 8 0
      CHANNELS 6 Xposition Yposition Zposition Zrotation Xrotation Yrotation
      JOINT Spine2
      {
        OFFSET 0 8 0
        CHANNELS 6 Xposition Yposition Zposition Zrotation Xrotation Yrotation
        JOINT Spine3
        {
          OFFSET 0 8 0
          CHANNELS 6 Xposition Yposition Zposition Zrotation Xrotation Yrotation
          JOINT Neck
          {
            OFFSET 0 17 0
            CHANNELS 6 Xposition Yposition Zposition Zrotation Xrotation Yrotation
            JOINT Head
            {
              OFFSET 0 10.8 0
              CHANNELS 6 Xposition Yposition Zposition Zrotation Xrotation Yrotation
              End Site
              {
                OFFSET 0 20.25 0
              }
            }
          }
          JOINT LeftShoulder
          {
            OFFSET 5 17 0
            CHANNELS 6 Xposition Yposition Zposition Zrotation Xrotation Yrotation
            JOINT LeftShoulder2
            {
              OFFSET 6.45 0 0
              CHANNELS 6 Xposition Yposition Zposition Zrotation Xrotation Yrotation
              JOINT LeftArm
              {
                OFFSET 6.45 0 0
                CHANNELS 6 Xposition Yposition Zposition Zrotation Xrotation Yrotation
                JOINT LeftForeArm
                {
                  OFFSET 0 -32.4 -2
                  CHANNELS 6 Xposition Yposition Zposition Zrotation Xrotation Yrotation
                  JOINT LeftHand
                  {
                    OFFSET 0 -25.65 2
                    CHANNELS 6 Xposition Yposition Zposition Zrotation Xrotation Yrotation
                    JOINT LeftHandThumb1
                    {
                      OFFSET -0.5 -1.5 2.65
                      CHANNELS 6 Xposition Yposition Zposition Zrotation Xrotation Yrotation
                      JOINT LeftHandThumb2
                      {
                        OFFSET 0 -3.8 3.7
                        CHANNELS 6 Xposition Yposition Zposition Zrotation Xrotation Yrotation
                        JOINT LeftHandThumb3
                        {
                          OFFSET 0 -3 2.7
                          CHANNELS 6 Xposition Yposition Zposition Zrotation Xrotation Yrotation
                          End Site
                          {
                            OFFSET 0 -2.3 1.8
                          }
                        }
                      }
                    }
                    JOINT LeftHandIndex
                    {
                      OFFSET 0 -1.9 1.6
                      CHANNELS 6 Xposition Yposition Zposition Zrotation Xrotation Yrotation
                      JOINT LeftHandIndex1
                      {
                        OFFSET 0 -8.3 1.9
                        CHANNELS 6 Xposition Yposition Zposition Zrotation Xrotation Yrotation
                        JOINT LeftHandIndex2
                        {
                          OFFSET 0 -4.5 0
                          CHANNELS 6 Xposition Yposition Zposition Zrotation Xrotation Yrotation
                          JOINT LeftHandIndex3
                          {
                            OFFSET 0 -3.4 0
                            CHANNELS 6 Xposition Yposition Zposition Zrotation Xrotation Yrotation
                            End Site
                            {
                              OFFSET 0 -2.6 0
                            }
                          }
                        }
                      }
                    }
                    JOINT LeftHandMiddle
                    {
                      OFFSET -0.25 -2.2 0.4
                      CHANNELS 6 Xposition Yposition Zposition Zrotation Xrotation Yrotation
                      JOINT LeftHandMiddle1
                      {
                        OFFSET 0 -8.3 1
                        CHANNELS 6 Xposition Yposition Zposition Zrotation Xrotation Yrotation
                        JOINT LeftHandMiddle2
                        {
                          OFFSET 0 -4.65 0
                          CHANNELS 6 Xposition Yposition Zposition Zrotation Xrotation Yrotation
                          JOINT LeftHandMiddle3
                          {
                            OFFSET 0 -3.3 0
                            CHANNELS 6 Xposition Yposition Zposition Zrotation Xrotation Yrotation
                            End Site
                            {
                              OFFSET 0 -2.7 0
                            }
                          }
                        }
                      }
                    }
                    JOINT LeftHandRing
                    {
                      OFFSET -0.5 -2.15 -0.8
                      CHANNELS 6 Xposition Yposition Zposition Zrotation Xrotation Yrotation
                      JOINT LeftHandRing1
                      {
                        OFFSET 0 -7.75 -0.2
                        CHANNELS 6 Xposition Yposition Zposition Zrotation Xrotation Yrotation
                        JOINT LeftHandRing2
                        {
                          OFFSET 0 -3.8 0
                          CHANNELS 6 Xposition Yposition Zposition Zrotation Xrotation Yrotation
                          JOINT LeftHandRing3
                          {
                            OFFSET 0 -3.4 0
                            CHANNELS 6 Xposition Yposition Zposition Zrotation Xrotation Yrotation
                            End Site
                            {
                              OFFSET 0 -2.6 0
                            }
                          }
                        }
                      }
                    }
                    JOINT LeftHandPinky
                    {
                      OFFSET -0.75 -1.75 -1.85
                      CHANNELS 6 Xposition Yposition Zposition Zrotation Xrotation Yrotation
                      JOINT LeftHandPinky1
                      {
                        OFFSET 0 -7.15 -1
                        CHANNELS 6 Xposition Yposition Zposition Zrotation Xrotation Yrotation
                        JOINT LeftHandPinky2
                        {
                          OFFSET 0 -3 0
                          CHANNELS 6 Xposition Yposition Zposition Zrotation Xrotation Yrotation
                          JOINT LeftHandPinky3
                          {
                            OFFSET 0 -2.35 0
                            CHANNELS 6 Xposition Yposition Zposition Zrotation Xrotation Yrotation
                            End Site
                            {
                              OFFSET 0 -2.1 0
                            }
                          }
                        }
                      }
                    }
                  }
                }
              }
            }
          }
          JOINT RightShoulder
          {
            OFFSET -5 17 0
            CHANNELS 6 Xposition Yposition Zposition Zrotation Xrotation Yrotation
            JOINT RightShoulder2
            {
              OFFSET -6.45 0 0
              CHANNELS 6 Xposition Yposition Zposition Zrotation Xrotation Yrotation
              JOINT RightArm
              {
                OFFSET -6.45 0 0
                CHANNELS 6 Xposition Yposition Zposition Zrotation Xrotation Yrotation
                JOINT RightForeArm
                {
                  OFFSET 0 -32.4 -2
                  CHANNELS 6 Xposition Yposition Zposition Zrotation Xrotation Yrotation
                  JOINT RightHand
                  {
                    OFFSET 0 -25.65 2
                    CHANNELS 6 Xposition Yposition Zposition Zrotation Xrotation Yrotation
                    JOINT RightHandThumb1
                    {
                      OFFSET 0.5 -1.5 2.65
                      CHANNELS 6 Xposition Yposition Zposition Zrotation Xrotation Yrotation
                      JOINT RightHandThumb2
                      {
                        OFFSET 0 -3.8 3.7
                        CHANNELS 6 Xposition Yposition Zposition Zrotation Xrotation Yrotation
                        JOINT RightHandThumb3
                        {
                          OFFSET 0 -3 2.7
                          CHANNELS 6 Xposition Yposition Zposition Zrotation Xrotation Yrotation
                          End Site
                          {
                            OFFSET 0 -2.3 1.8
                          }
                        }
                      }
                    }
                    JOINT RightHandIndex
                    {
                      OFFSET 0 -1.9 1.6
                      CHANNELS 6 Xposition Yposition Zposition Zrotation Xrotation Yrotation
                      JOINT RightHandIndex1
                      {
                        OFFSET 0 -8.3 1.9
                        CHANNELS 6 Xposition Yposition Zposition Zrotation Xrotation Yrotation
                        JOINT RightHandIndex2
                        {
                          OFFSET 0 -4.5 0
                          CHANNELS 6 Xposition Yposition Zposition Zrotation Xrotation Yrotation
                          JOINT RightHandIndex3
                          {
                            OFFSET 0 -3.4 0
                            CHANNELS 6 Xposition Yposition Zposition Zrotation Xrotation Yrotation
                            End Site
                            {
                              OFFSET 0 -2.6 0
                            }
                          }
                        }
                      }
                    }
                    JOINT RightHandMiddle
                    {
                      OFFSET 0.25 -2.2 0.4
                      CHANNELS 6 Xposition Yposition Zposition Zrotation Xrotation Yrotation
                      JOINT RightHandMiddle1
                      {
                        OFFSET 0 -8.3 1
                        CHANNELS 6 Xposition Yposition Zposition Zrotation Xrotation Yrotation
                        JOINT RightHandMiddle2
                        {
                          OFFSET 0 -4.65 0
                          CHANNELS 6 Xposition Yposition Zposition Zrotation Xrotation Yrotation
                          JOINT RightHandMiddle3
                          {
                            OFFSET 0 -3.3 0
                            CHANNELS 6 Xposition Yposition Zposition Zrotation Xrotation Yrotation
                            End Site
                            {
                              OFFSET 0 -2.7 0
                            }
                          }
                        }
                      }
                    }
                    JOINT RightHandRing
                    {
                      OFFSET 0.5 -2.15 -0.8
                      CHANNELS 6 Xposition Yposition Zposition Zrotation Xrotation Yrotation
                      JOINT RightHandRing1
                      {
                        OFFSET 0 -7.75 -0.2
                        CHANNELS 6 Xposition Yposition Zposition Zrotation Xrotation Yrotation
                        JOINT RightHandRing2
                        {
                          OFFSET 0 -3.8 0
                          CHANNELS 6 Xposition Yposition Zposition Zrotation Xrotation Yrotation
                          JOINT RightHandRing3
                          {
                            OFFSET 0 -3.4 0
                            CHANNELS 6 Xposition Yposition Zposition Zrotation Xrotation Yrotation
                            End Site
                            {
                              OFFSET 0 -2.6 0
                            }
                          }
                        }
                      }
                    }
                    JOINT RightHandPinky
                    {
                      OFFSET 0.75 -1.75 -1.85
                      CHANNELS 6 Xposition Yposition Zposition Zrotation Xrotation Yrotation
                      JOINT RightHandPinky1
                      {
                        OFFSET 0 -7.15 -1
                        CHANNELS 6 Xposition Yposition Zposition Zrotation Xrotation Yrotation
                        JOINT RightHandPinky2
                        {
                          OFFSET 0 -3 0
                          CHANNELS 6 Xposition Yposition Zposition Zrotation Xrotation Yrotation
                          JOINT RightHandPinky3
                          {
                            OFFSET 0 -2.35 0
                            CHANNELS 6 Xposition Yposition Zposition Zrotation Xrotation Yrotation
                            End Site
                            {
                              OFFSET 0 -2.1 0
                            }
                          }
                        }
                      }
                    }
                  }
                }
              }
            }
          }
        }
      }
    }
  }
  JOINT LeftUpLeg
  {
    OFFSET 8 0 0
    CHANNELS 6 Xposition Yposition Zposition Zrotation Xrotation Yrotation
    JOINT LeftLeg
    {
      OFFSET 0 -45 -1
      CHANNELS 6 Xposition Yposition Zposition Zrotation Xrotation Yrotation
      JOINT LeftFoot
      {
        OFFSET 0 -41 -2
        CHANNELS 6 Xposition Yposition Zposition Zrotation Xrotation Yrotation
        JOINT LeftToeBase
        {
          OFFSET 0 -7.5 12.5
          CHANNELS 6 Xposition Yposition Zposition Zrotation Xrotation Yrotation
          JOINT LeftFootToe
          {
            OFFSET 0 0 4
            CHANNELS 6 Xposition Yposition Zposition Zrotation Xrotation Yrotation
            End Site
            {
              OFFSET 0 0 0
            }
          }
        }
      }
    }
  }
  JOINT RightUpLeg
  {
    OFFSET -8 0 0
    CHANNELS 6 Xposition Yposition Zposition Zrotation Xrotation Yrotation
    JOINT RightLeg
    {
      OFFSET 0 -45 -1
      CHANNELS 6 Xposition Yposition Zposition Zrotation Xrotation Yrotation
      JOINT RightFoot
      {
        OFFSET 0 -41 -2
        CHANNELS 6 Xposition Yposition Zposition Zrotation Xrotation Yrotation
        JOINT RightToeBase
        {
          OFFSET 0 -7.5 12.5
          CHANNELS 6 Xposition Yposition Zposition Zrotation Xrotation Yrotation
          JOINT RightFootToe
          {
            OFFSET 0 0 4
            CHANNELS 6 Xposition Yposition Zposition Zrotation Xrotation Yrotation
            End Site
            {
              OFFSET 0 0 0
            }
          }
        }
      }
    }
  }
}
MOTION
Frames:	3
Frame Time:	0.0111111
-387.74 92.3667 1384.69 -5.99337 -2.20424 150.091 0 8 0 8.01196 16.6464 -6.82846 -1.13687e-13 8 0 -1.03753 5.93196 2.48689 1.13687e-13 8 -2.27374e-13 -0.486259 2.97398 1.22933 0 8 0 -0.485438 2.96921 1.22735 5.68434e-14 17 0 -0.0607171 2.96601 -5.66008 -1.13687e-13 10.8 0 0.318768 6.91835 -13.2736 5 17 0 -6.73119 -0.822299 -5.74302 6.45 -1.13687e-13 0 -1.38926 0.562389 5.92441 6.45 -1.13687e-13 -2.27374e-13 27.7105 -9.20226 27.77 2.84217e-14 -32.4 -2 -126.391 -58.0391 141.913 -2.84217e-14 -25.65 2 7.77717 10.4478 20.7452 -0.5 -1.5 2.65 -16.6428 -45.5666 109.625 0 -3.8 3.7 -0.0881755 36.0588 0.0184443 0 -3 2.7 -0.00855618 12.1402 0.00368826 0 -1.9 1.6 4.77083e-15 -9.54166e-15 3.97569e-15 0 -8.3 1.9 -1.55946 5.22582 0.250876 1.13687e-13 -4.5 2.27374e-13 -50.8217 0.00175484 -0.0112913 -1.13687e-13 -3.4 0 -35.065 0.0109455 -0.00298856 -0.25 -2.2 0.4 4.77083e-15 -9.54166e-15 3.97569e-15 1.13687e-13 -8.3 1 -10.8745 7.9381 1.91515 0 -4.65 -5.68434e-14 -49.5015 0.00387123 -0.0102763 0 -3.3 5.68434e-14 -90.0002 4.45278e-14 -4.45278e-14 -0.5 -2.15 -0.8 4.77083e-15 -9.54166e-15 3.97569e-15 5.68434e-14 -7.75 -0.2 -45.2984 3.15295 7.00683 -1.13687e-13 -3.8 -5.68434e-14 -1.77347 3.18055e-15 -0.00328187 2.27374e-13 -3.4 0 -90.0002 1.59028e-14 -4.45278e-14 -0.75 -1.75 -1.85 4.77083e-15 -9.54166e-15 3.97569e-15 -1.13687e-13 -7.15 -1 -24.21 14.2274 4.14776 1.13687e-13 -3 -5.68434e-14 -29.8133 -0.0252855 -0.0383528 -1.13687e-13 -2.35 0 -17.2782 -0.00521837 -0.407043 -5 17 4.54747e-13 4.16211 0.328774 2.66928 -6.45 0 2.27374e-13 -1.23226 -0.221703 -2.92952 -6.45 -1.13687e-13 -2.27374e-13 -46.4171 -14.3621 -6.11976 2.84217e-14 -32.4 -2 -30.1263 -52.2154 -56.5339 0 -25.65 2 -5.71289 -12.4693 -21.3005 0.5 -1.5 2.65 -7.94456 -19.1092 8.27905 -2.27374e-13 -3.8 3.7 0.167786 17.6071 -0.077767 -4.54747e-13 -3 2.7 0.0144359 32.0398 -0.0061076 2.27374e-13 -1.9 1.6 -0 -7.95139e-16 -0 0 -8.3 1.9 0.184303 3.66401 -0.0133604 0 -4.5 0 1.41958 0.0259205 -0.00343123 4.54747e-13 -3.4 0 1.33879 0.0241268 -0.00352597 0.25 -2.2 0.4 -0 -7.95139e-16 -0 0 -8.3 1 4.85305 -1.50497 -0.289173 0 -4.65 0 6.36111e-15 7.95139e-16 7.95139e-16 -2.27374e-13 -3.3 -5.68434e-14 -6.36111e-15 0 6.36111e-15 0.5 -2.15 -0.8 -0 -7.95139e-16 -0 -2.27374e-13 -7.75 -0.2 13.532 -4.57325 -0.448363 2.27374e-13 -3.8 2.84217e-14 41.7803 0.00253206 -0.00474233 0 -3.4 0 29.179 0.0173125 -0.00543742 0.75 -1.75 -1.85 -0 -7.95139e-16 -0 0 -7.15 -1 61.9248 -4.41047 -2.29101 -1.13687e-13 -3 -1.42109e-14 14.034 0.00400155 -0.00252896 -1.13687e-13 -2.35 4.26326e-14 11.8153 0.00430082 -0.00575752 8 1.42109e-14 2.27374e-13 0.254295 -16.3669 -15.2802 0 -45 -1 -0.535851 17.3342 5.08696 0 -41 -2 1.71996 -6.83318 18.9624 5.68434e-14 -7.5 12.5 -7.95139e-16 7.95139e-16 -0 -5.68434e-14 0 4 -2.6056 5.08415 31.4128 -8 -1.42109e-14 0 1.77473 -17.1772 7.57011 5.68434e-14 -45 -1 0.296974 19.8403 -2.39962 1.7053e-13 -41 -2 -4.24141 -7.08192 11.1739 -1.7053e-13 -7.5 12.5 -2.12324e-20 -0.00491774 1.59028e-15 -5.68434e-14 0 4 10.5082 -0.479963 2.1017 
-387.739 92.5018 1384.62 -6.15545 -2.35523 149.84 1.7053e-13 8 0 8.07743 16.5988 -6.71435 5.68434e-14 8 2.27374e-13 -1.06285 5.95307 2.49208 2.27374e-13 8 0 -0.498733 2.98471 1.23153 0 8 0 -0.497876 2.97988 1.22953 1.7053e-13 17 -2.27374e-13 -0.0733396 2.97258 -5.64277 0 10.8 2.27374e-13 0.288871 6.93563 -13.2321 5 17 2.27374e-13 -6.8494 -0.840532 -5.7355 6.45 -1.13687e-13 0 -1.38973 0.569441 5.89845 6.45 -1.13687e-13 0 27.7105 -9.20226 27.77 5.68434e-14 -32.4 -2 -127.306 -58.4214 140.767 2.84217e-14 -25.65 2 7.77717 10.4478 20.7452 -0.5 -1.5 2.65 -16.4473 -45.3306 109.724 0 -3.8 3.7 -0.0883243 36.4305 0.0185322 2.27374e-13 -3 2.7 -0.00855064 12.0561 0.0036871 0 -1.9 1.6 3.18055e-15 0 3.97569e-15 0 -8.3 1.9 -1.52431 5.01502 0.24162 1.13687e-13 -4.5 2.84217e-13 -50.8856 0.00175484 -0.0112913 -1.13687e-13 -3.4 -5.68434e-14 -35.1091 0.0109455 -0.00298856 -0.25 -2.2 0.4 3.18055e-15 0 3.97569e-15 1.13687e-13 -8.3 1 -10.8871 7.83144 1.9025 -1.77636e-14 -4.65 -1.7053e-13 -49.2206 0.00387123 -0.0102763 0 -3.3 1.7053e-13 -90.0002 1.27222e-14 -2.06736e-14 -0.5 -2.15 -0.8 3.18055e-15 0 3.97569e-15 0 -7.75 -0.2 -45.4227 3.16864 7.00694 -1.13687e-13 -3.8 -1.13687e-13 -1.77347 1.27222e-14 -0.00328187 1.13687e-13 -3.4 -5.68434e-14 -90.0002 3.18055e-15 -3.49861e-14 -0.75 -1.75 -1.85 3.18055e-15 0 3.97569e-15 -1.7053e-13 -7.15 -1 -24.3357 14.0926 4.13539 1.13687e-13 -3 1.13687e-13 -28.4219 -0.0252855 -0.0256454 0 -2.35 5.68434e-14 -5.02548 -0.0655818 -0.210877 -5 17 2.27374e-13 4.05433 0.339691 2.68241 -6.45 -1.13687e-13 0 -1.2191 -0.221699 -2.94899 -6.45 0 0 -46.7384 -14.5766 -6.04148 8.52651e-14 -32.4 -2 -29.9856 -52.3834 -56.779 -1.13687e-13 -25.65 2 -5.70274 -12.2521 -21.7683 0.5 -1.5 2.65 -7.52754 -18.9954 8.50537 0 -3.8 3.7 0.167651 17.512 -0.0777262 0 -3 2.7 0.0135236 32.2477 -0.00436265 2.27374e-13 -1.9 1.6 1.54487e-31 2.78299e-15 -3.18055e-15 0 -8.3 1.9 0.14056 3.17574 -0.0133536 -2.27374e-13 -4.5 -2.84217e-14 0.705584 0.0148109 -0.00343123 0 -3.4 -5.68434e-14 0.676728 0.0141384 -0.00352597 0.25 -2.2 0.4 1.54487e-31 2.78299e-15 -3.18055e-15 0 -8.3 1 4.72123 -1.98087 -0.261978 2.27374e-13 -4.65 0 9.54166e-15 4.37326e-15 -2.38542e-15 -1.13687e-13 -3.3 -2.84217e-14 3.18055e-15 -3.97569e-16 6.36111e-15 0.5 -2.15 -0.8 1.54487e-31 2.78299e-15 -3.18055e-15 0 -7.75 -0.2 13.2106 -4.95663 -0.392293 -2.27374e-13 -3.8 1.42109e-14 41.5845 0.00253206 -0.00474233 2.84217e-14 -3.4 1.42109e-14 29.0582 0.0173125 -0.00543742 0.75 -1.75 -1.85 1.54487e-31 2.78299e-15 -3.18055e-15 0 -7.15 -1 61.8198 -4.32948 -2.32156 5.68434e-14 -3 -4.26326e-14 13.9061 0.00400155 -0.00252896 0 -2.35 4.26326e-14 11.7225 0.00430082 -0.00575752 8 1.42109e-14 2.27374e-13 0.254295 -16.3669 -15.2802 1.13687e-13 -45 -1 -0.544715 17.3953 5.1498 0 -41 -2 1.61578 -6.69616 18.6483 0 -7.5 12.5 -7.95139e-16 3.18055e-15 -0 -5.68434e-14 -1.42109e-14 4 -2.5086 4.91998 31.4231 -8 0 0 1.72661 -16.8945 7.60294 0 -45 -1 0.269624 18.8632 -2.32684 5.68434e-14 -41 -2 -4.2924 -6.60866 11.3622 -1.13687e-13 -7.5 12.5 -1.21329e-20 -0.00491774 -0 -1.13687e-13 2.77556e-17 4 10.428 -0.547066 2.07345 
-387.722 92.6387 1384.56 -6.30741 -2.52242 149.63 5.68434e-14 8 2.27374e-13 8.1654 16.5451 -6.60845 -1.13687e-13 8 -2.27374e-13 -1.07187 5.97086 2.47337 5.68434e-14 8 -4.54747e-13 -0.503377 2.99361 1.22204 1.13687e-13 8 0 -0.502506 2.98876 1.22002 1.7053e-13 17 0 -0.0969208 2.97751 -5.61952 0 10.8 0 0.232621 6.95083 -13.1756 5 17 0 -6.98311 -0.854879 -5.66718 6.45 -1.13687e-13 -2.27374e-13 -1.38977 0.57338 5.86228 6.45 -1.13687e-13 -2.27374e-13 27.7105 -9.20226 27.77 0 -32.4 -2 -128.18 -58.779 139.677 5.68434e-14 -25.65 2 7.77717 10.4478 20.7452 -0.5 -1.5 2.65 -16.1726 -45.1057 109.908 0 -3.8 3.7 -0.0884439 36.7271 0.0186035 0 -3 2.7 -0.00854593 11.9845 0.00368612 0 -1.9 1.6 3.18055e-15 3.18055e-15 3.97569e-15 5.68434e-14 -8.3 1.9 -1.49714 4.85698 0.233689 1.13687e-13 -4.5 2.27374e-13 -50.8402 0.00123433 -0.0112913 -1.13687e-13 -3.4 0 -35.0777 0.0109455 -0.00298856 -0.25 -2.2 0.4 3.18055e-15 3.18055e-15 3.97569e-15 1.13687e-13 -8.3 1 -10.8897 7.75207 1.89004 -7.10543e-15 -4.65 -5.68434e-14 -48.8563 0.00387123 -0.0102763 0 -3.3 5.68434e-14 -90.0002 -3.18055e-14 1.90833e-14 -0.5 -2.15 -0.8 3.18055e-15 3.18055e-15 3.97569e-15 0 -7.75 -0.2 -45.4762 3.23138 7.00737 -1.13687e-13 -3.8 -5.68434e-14 -1.77347 3.18055e-15 -0.00328187 2.27374e-13 -3.4 0 -90.0002 -3.65764e-14 2.22639e-14 -0.75 -1.75 -1.85 3.18055e-15 3.18055e-15 3.97569e-15 -5.68434e-14 -7.15 -1 -24.266 13.9298 4.07936 1.13687e-13 -3 5.68434e-14 -27.2232 -0.0222747 -0.0132258 1.13687e-13 -2.35 -5.68434e-14 7.21838 -0.00811768 -0.00363159 -5 17 2.27374e-13 3.91412 0.36221 2.73913 -6.45 0 0 -1.208 -0.225629 -2.96844 -6.45 -1.13687e-13 0 -47.0513 -14.7455 -5.98258 8.52651e-14 -32.4 -2 -29.8706 -52.5663 -57.0465 -1.13687e-13 -25.65 2 -5.59645 -12.0339 -22.229 0.5 -1.5 2.65 -7.09279 -18.7849 8.77222 0 -3.8 3.7 0.166643 17.4741 -0.074534 -2.27374e-13 -3 2.7 0.00605575 32.9547 0.00944895 2.27374e-13 -1.9 1.6 9.54166e-15 -1.19271e-15 -7.95139e-16 0 -8.3 1.9 0.102551 2.65312 -0.0133474 0 -4.5 2.84217e-14 0.240353 0.00550275 -0.00217433 0 -3.4 -5.68434e-14 0.234156 0.00535934 -0.00192548 0.25 -2.2 0.4 9.54166e-15 -1.19271e-15 -7.95139e-16 2.27374e-13 -8.3 1 4.65289 -2.4396 -0.240102 2.27374e-13 -4.65 0 -2.75869e-32 1.98785e-15 7.95139e-16 -2.27374e-13 -3.3 -2.84217e-14 -3.18055e-15 -7.95139e-16 7.95139e-15 0.5 -2.15 -0.8 9.54166e-15 -1.19271e-15 -7.95139e-16 0 -7.75 -0.2 13.026 -5.33962 -0.344165 1.13687e-13 -3.8 -1.42109e-14 41.3462 0.00253206 -0.00474233 0 -3.4 1.42109e-14 28.9114 0.0173125 -0.00543742 0.75 -1.75 -1.85 9.54166e-15 -1.19271e-15 -7.95139e-16 0 -7.15 -1 61.6987 -4.28116 -2.33193 0 -3 0 13.7071 0.00400155 -0.00252896 0 -2.35 2.84217e-14 11.5771 0.00430082 -0.00575752 8 0 4.54747e-13 0.254295 -16.3669 -15.2802 1.13687e-13 -45 -1 -0.554276 17.4662 5.21217 0 -41 -2 1.49045 -6.49417 18.4025 0 -7.5 12.5 -3.57812e-15 1.59028e-15 -3.18055e-15 -1.13687e-13 1.42109e-14 4 -2.41257 4.69116 31.4411 -8 -7.10543e-15 0 1.68464 -16.5827 7.62288 -5.68434e-14 -45 -1 0.241764 17.807 -2.24992 5.68434e-14 -41 -2 -4.34357 -6.09211 11.5542 -5.68434e-14 -7.5 12.5 1.39528e-19 -0.00491774 3.18055e-15 0 -1.38778e-17 4 10.3473 -0.592936 2.06811 
